<svg xmlns="http://www.w3.org/2000/svg" viewBox="0 0 47.744 10.481" height="39.613" width="180.45" style="fill:#FFFFFF"><path d="M1.42 10.47H0V2.828h.34l.563.667q.2-.18.42-.34.227-.16.47-.274.248-.12.512-.186.264-.067.532-.067.584 0 1.096.212.517.207.9.6.388.382.6.925.222.537.222 1.194 0 .682-.222 1.23-.222.543-.6.925-.382.377-.9.58-.512.202-1.096.202-.186 0-.372-.04-.18-.04-.362-.1-.176-.072-.35-.16-.17-.088-.33-.18zm2.827-4.925q0-.35-.114-.63-.1-.28-.3-.47-.2-.196-.45-.3-.258-.103-.548-.103-.3 0-.548.103-.253.103-.444.3-.2.2-.305.47-.1.28-.1.63 0 .336.1.615.114.28.305.475.2.196.444.305.258.1.548.1.3 0 .548-.1.258-.1.45-.305.2-.196.3-.475.114-.28.114-.615zM7.86 8.362h-1.4V2.828h.34l.465.537q.34-.3.77-.475.434-.17.904-.17.506 0 .956.196.45.2.785.532.336.336.527.8.196.45.196.96V8.36h-1.4V5.2q0-.217-.083-.408-.083-.196-.227-.34-.145-.145-.336-.227-.2-.083-.408-.083-.222 0-.42.083-.196.083-.34.227-.145.145-.227.34-.083.2-.083.408zm8.48-2.816q0-.3-.114-.558-.1-.274-.3-.48-.2-.212-.45-.336-.253-.13-.543-.13-.3 0-.548.098-.253.098-.444.3-.186.2-.295.475-.1.28-.1.64 0 .346.1.625.1.274.295.47.2.196.444.305.258.103.548.103.3 0 .543-.124.258-.13.45-.336.2-.212.3-.48.114-.274.114-.563zm1.42 2.12q0 .584-.222 1.096-.222.512-.6.894-.382.382-.9.605-.512.222-1.096.222l-.708-.01V9.06l.698.01q.33 0 .563-.088.233-.083.393-.233.16-.145.253-.336.098-.2.155-.403-.083.134-.238.222-.155.083-.346.134-.186.057-.393.078-.202.02-.377.02-.584 0-1.1-.202-.512-.202-.9-.574-.382-.377-.605-.92-.222-.543-.222-1.225 0-.625.222-1.163.222-.537.605-.93.388-.393.9-.615.517-.222 1.1-.222.27 0 .532.067.264.067.512.186.248.12.47.28.227.16.424.346l.548-.656h.34zm14.688.696h-1.4v-4.13h-.687V2.828h.687v-.264q0-.512.2-.96.196-.45.532-.78.34-.336.8-.527Q33 .1 33.512.1h1.06v1.406h-1.06q-.227 0-.424.083-.2.078-.336.222-.14.14-.222.336-.083.2-.083.42v.264h1.73v1.406h-1.73zm6.428-.646q-.17.155-.367.295-.2.134-.403.238-.212.098-.44.155-.222.062-.455.062-.512 0-.96-.18-.45-.18-.8-.512-.336-.336-.532-.8-.2-.48-.2-1.075V2.83h1.406v3.06q0 .28.083.5.088.217.233.367.145.15.336.227.196.078.42.078.217 0 .408-.098.196-.103.34-.27.145-.165.227-.372.083-.212.083-.434v-3.06h1.4v5.535h-.34zm4.088-.708q.083.026.165.036.083.005.165.005.207 0 .398-.057.2-.057.357-.16.17-.1.3-.258.134-.155.217-.34l1.034 1.04q-.196.28-.455.5-.253.222-.553.377-.295.155-.625.233-.326.083-.672.083-.584 0-1.1-.217-.512-.217-.9-.605-.382-.388-.605-.92-.222-.537-.222-1.178 0-.656.222-1.2.222-.543.605-.925.388-.382.9-.594.517-.212 1.1-.212.346 0 .677.083.33.083.625.238.3.155.558.382.258.222.455.5zm.723-2.9q-.098-.036-.196-.047-.093-.01-.196-.01-.3 0-.548.1-.253.103-.444.3-.186.196-.295.475-.1.274-.1.62 0 .078.005.176.01.098.026.202.02.098.047.2.026.093.067.165zm4.057 4.264h-1.42V.626h1.42z"/><g transform="matrix(.022416 0 0 .022416 18.770985 -.000358)"><path d="M201.013 385.202L80.407 264.596l-28.848 44.22L156.795 414.05zM22.96 181.418l61.693 19.65 114.014-114.01-85.492 4.147zm355.593 85.524L264.54 380.955l19.65 61.693 90.214-90.214zM.001 360.612l34-34 21.213 21.213-34 34zM104.992 465.6L83.78 444.397l34-34L139 431.6zM25.02 417.876l50.122-50.122 21.213 21.213-50.122 50.122z"/><circle cx="364.939" cy="100.67" r="15"/><path d="M454.967 10.643c-58.835-22.22-127.81-9.648-175.172 37.712l-186.6 186.6 137.46 137.46 186.6-186.6c47.36-47.36 59.93-116.336 37.712-175.17zM396.76 132.5c-17.574 17.573-46.066 17.573-63.64 0s-17.574-46.066 0-63.64 46.066-17.574 63.64 0 17.573 46.067 0 63.64z"/></g></svg>